# xmcd
#
# Track frame offsets:
# 150
# 17398
# 31884
# 46023
# 61361
# 76029
# 90505
# 106064
# 120920
# 136752
# 149665
# 161757
# 180608
# 197709
# 212195
# 227870
# 242726
# 254818
#
# Disc length: 3641 seconds
#
# Revision: 0
# Processed by: cddbd v1.5.1PL2 Copyright (c) Steve Scherf et al.
# Submitted via: Audion 3.0.2 (http://www.panic.com/audion/)
#
DISCID=ea0e3712
DTITLE=Frank Schöbel - Egal Was Passiert 
DYEAR=1900
DGENRE=
TTITLE0=jedes mal
TTITLE1=die liebe zu dir
TTITLE2=egal was passiert
TTITLE3=spiegelbild (duett mit seiner tochter dominique)
TTITLE4=steh auf und leb dein leben
TTITLE5=wir lieben das leben (duett mit frank zander)
TTITLE6=engel wie du
TTITLE7=zieh durch
TTITLE8=fussball wm hitmix
TTITLE9=schrei mich nicht so an
TTITLE10=vater und sohn (duett mit seinem sohn alexander)
TTITLE11=mensch - wach auf
TTITLE12=jedes mal (karaoke version)
TTITLE13=die liebe zu dir (karaoke version)
TTITLE14=fussball wm hitmix (karaoke version)
TTITLE15=zieh durch (karaoke version)
TTITLE16=vater und sohn (karaoke version)
TTITLE17=mensch - wach auf (karaoke version)
EXTD=
EXTT0=
EXTT1=
EXTT2=
EXTT3=
EXTT4=
EXTT5=
EXTT6=
EXTT7=
EXTT8=
EXTT9=
EXTT10=
EXTT11=
EXTT12=
EXTT13=
EXTT14=
EXTT15=
EXTT16=
EXTT17=
PLAYORDER=
